<?xml version="1.0" encoding="UTF-8" standalone="no"?>
<!-- Created with Inkscape (http://www.inkscape.org/) -->

<svg
   width="48"
   height="48"
   viewBox="0 0 12.7 12.7"
   version="1.1"
   id="svg1"
   inkscape:version="1.4 (e7c3feb100, 2024-10-09)"
   sodipodi:docname="drawing.svg"
   xmlns:inkscape="http://www.inkscape.org/namespaces/inkscape"
   xmlns:sodipodi="http://sodipodi.sourceforge.net/DTD/sodipodi-0.dtd"
   xmlns="http://www.w3.org/2000/svg"
   xmlns:svg="http://www.w3.org/2000/svg"
   xmlns:rdf="http://www.w3.org/1999/02/22-rdf-syntax-ns#"
   xmlns:cc="http://creativecommons.org/ns#"
   xmlns:dc="http://purl.org/dc/elements/1.1/">
  <defs
     id="defs1" />
  <sodipodi:namedview
     id="base"
     pagecolor="#ffffff"
     bordercolor="#000000"
     borderopacity="0.3"
     inkscape:pageopacity="0.0"
     inkscape:pageshadow="2"
     inkscape:zoom="5.6"
     inkscape:cx="43.214286"
     inkscape:cy="33.125"
     inkscape:document-units="mm"
     inkscape:showpageshadow="2"
     inkscape:pagecheckerboard="0"
     inkscape:deskcolor="#d1d1d1"
     inkscape:window-width="1189"
     inkscape:window-height="755"
     inkscape:window-x="2556"
     inkscape:window-y="200"
     inkscape:window-maximized="0"
     inkscape:current-layer="svg1" />
  <metadata
     id="metadata1">
    <rdf:RDF>
      <cc:Work
         rdf:about="">
        <dc:format>image/svg+xml</dc:format>
        <dc:type
           rdf:resource="http://purl.org/dc/dcmitype/StillImage" />
      </cc:Work>
    </rdf:RDF>
  </metadata>
  <path
     style="fill:#cccccc"
     d="m 21.733303,22.817276 c -20.1269042,-21.4943593 -20.1269042,-21.4943593 0,0 z M 5.4996899,12.12259 C 5.1235599,12.06161 4.6447208,11.932296 4.3374309,11.808727 L 4.1024801,11.714247 4.0937501,9.3762136 4.0850201,7.0381802 4.276253,6.820363 C 4.381431,6.7005636 4.4847284,6.6036714 4.5058028,6.6050471 c 0.021074,0.00138 0.1032894,0.07838 0.1827002,0.1711196 l 0.1443834,0.1686184 v 2.1692646 2.1692653 l 0.2632873,0.06968 c 0.144808,0.03833 0.3550131,0.08625 0.4671225,0.106495 0.2732484,0.04935 0.9025689,0.08439 1.0138649,0.05645 L 6.6665684,11.49351 6.4219826,11.002958 6.1773969,10.512408 6.4427584,10.118974 C 6.7103952,9.722166 6.801772,9.6272282 7.0682288,9.4691278 L 7.2142559,9.3824838 6.9187499,9.9714162 6.623244,10.560348 6.8549061,11.010484 c 0.1274141,0.247576 0.2405426,0.450117 0.2513965,0.450093 0.010854,-2.4e-5 0.1738933,-0.03739 0.3623096,-0.08304 1.7265971,-0.41831 3.0867658,-1.7721473 3.5245318,-3.5081273 0.327783,-1.2998386 0.09288,-2.6887365 -0.643105,-3.8024867 l -0.182683,-0.2764484 0.09304,-0.3567461 c 0.05117,-0.1962104 0.108325,-0.3613996 0.127009,-0.3670871 0.01868,-0.00569 0.158273,0.1538075 0.310196,0.3544336 0.474901,0.6271459 0.821963,1.3935972 1.005064,2.219583 0.06278,0.2831905 0.07402,0.4408286 0.07463,1.0468194 7.79e-4,0.7695813 -0.03976,1.0559978 -0.239353,1.6909306 -0.367295,1.1684333 -1.23419,2.284465 -2.2976972,2.958031 -0.5329825,0.337561 -1.3085862,0.644169 -1.9103664,0.755197 -0.4233453,0.07811 -1.4339456,0.0952 -1.8301825,0.03095 z m -2.6700436,-1.207929 -0.3408621,-0.27418 0.0011,-0.9743115 0.0011,-0.9743117 0.3542445,-0.3736981 0.3542446,-0.373698 0.00137,1.6221892 c 7.516e-4,0.8922041 -0.00577,1.6221901 -0.014483,1.6221901 -0.00872,0 -0.1692375,-0.123382 -0.3567118,-0.27418 z M 8.2596835,9.4522073 8.0068011,9.1743299 7.6683367,9.1470718 c -0.1861554,-0.014992 -0.5024703,-0.028 -0.702922,-0.028908 L 6.600957,9.1165147 6.4113623,8.8871999 C 6.3070853,8.7610768 6.1611253,8.5795279 6.0870068,8.4837578 L 5.9522459,8.3096304 6.0374179,7.9075063 c 0.06984,-0.3297343 0.1021034,-0.4190729 0.179225,-0.496274 l 0.094053,-0.09415 -0.010257,0.466566 -0.010257,0.466566 0.2480648,0.2632549 0.2480648,0.2632548 0.5945196,0.051463 C 8.2275789,8.901484 8.1462602,8.873409 8.4128026,9.1844755 L 8.6456679,9.4562402 H 8.8802355 9.114803 L 9.2829667,9.1986392 C 9.3754568,9.0569586 9.4904125,8.9101389 9.538424,8.8723731 9.5864354,8.8346073 9.6789566,8.6979894 9.7440265,8.5687777 L 9.8623355,8.3338475 9.708705,8.169604 C 9.6242082,8.0792701 9.5550744,7.9963178 9.5550744,7.9852656 c 0,-0.011052 0.070423,-0.024754 0.156495,-0.030449 L 9.8680644,7.9444617 9.4576497,7.5381017 9.0472349,7.1317418 9.0250407,6.9355708 9.0028464,6.7393998 8.5026854,6.3653066 C 8.08016,6.0492806 7.9744512,5.9858893 7.8216659,5.9569142 7.7221938,5.9380497 7.6330427,5.9148503 7.6235523,5.9053599 c -0.00949,-0.00949 0.035206,-0.071472 0.099326,-0.1377374 0.1030214,-0.106468 0.1304124,-0.1179713 0.2354858,-0.098896 0.1499158,0.027217 0.1925774,0.054629 0.7304098,0.4693191 0.6489475,0.5003649 0.6284922,0.4776551 0.6284922,0.6977621 v 0.1865777 l 0.492602,0.4787296 c 0.2709309,0.2633017 0.4926019,0.4981658 0.4926019,0.5219207 0,0.077078 -0.4453406,0.8696555 -0.5476031,0.974575 C 9.7002319,9.0536657 9.57383,9.2371172 9.4739743,9.4052813 l -0.181556,0.305753 -0.3899265,0.00953 -0.3899264,0.00953 z M 1.317864,8.955145 C 1.1862742,8.6168079 1.0196466,8.0731036 0.95524543,7.7719245 0.88601943,7.4481812 0.87609243,7.3099878 0.87734743,6.6874774 0.87856743,6.0821732 0.89018543,5.9212862 0.95401143,5.625868 1.201227,4.4816264 1.7003141,3.5791849 2.5275428,2.780634 3.2965139,2.0383208 4.1779316,1.5708112 5.2611296,1.330722 5.7215145,1.2286784 6.8695755,1.2189618 7.3128861,1.313357 7.7079734,1.397484 8.2361522,1.561313 8.5019254,1.6821698 L 8.7227469,1.7825856 8.2404178,1.9395062 7.7580886,2.096427 7.4295949,2.0209699 C 6.2405206,1.7478304 4.9778355,1.9300379 3.9384063,2.5247536 3.1653031,2.9670894 2.4335614,3.7307537 2.0447108,4.5010625 1.6792979,5.2249412 1.4640371,6.2050334 1.5162448,6.9071909 c 0.030586,0.4113575 0.092301,0.8164496 0.1243848,0.8164496 0.015023,0 0.1317441,-0.1131655 0.2593792,-0.2514788 C 2.0276438,7.3338484 2.5744041,6.7567397 3.1150317,6.189698 3.6556594,5.6226562 4.1881756,5.0631652 4.2984013,4.9463846 4.408627,4.8296039 4.5090067,4.7341367 4.5214674,4.7342353 c 0.012461,9.85e-5 0.2886567,0.2908229 0.6137688,0.6460542 0.3251121,0.3552312 0.5975822,0.6394056 0.6054892,0.6314986 0.00791,-0.00791 -0.00194,-0.073139 -0.021883,-0.144959 -0.019943,-0.071821 -0.03638,-0.1917333 -0.036528,-0.2664729 L 5.6820456,5.464466 5.9623985,5.474456 6.2427513,5.484446 7.0750788,4.6136521 C 7.5328584,4.1347218 7.9651544,3.6768047 8.0357361,3.5960645 L 8.1640665,3.4492642 7.6545358,3.1836902 C 7.3617153,3.0310684 7.1626449,2.9084632 7.1864799,2.8954199 7.2611059,2.8545829 10.003024,1.9772611 10.015872,1.9901098 10.022752,1.9969898 9.8941438,2.5445795 9.7300697,3.20697 9.5659956,3.8693606 9.4015663,4.5412615 9.3646712,4.7000831 L 9.2975892,4.9888499 8.9971806,4.4877547 C 8.8319559,4.2121524 8.6858479,3.9866596 8.6724962,3.9866596 c -0.035227,0 -0.8250481,0.8150926 -1.9513608,2.0137966 C 6.1807961,6.5755246 5.7290895,7.0417978 5.7173429,7.0366189 5.7055963,7.0314401 5.4316254,6.7405595 5.1085187,6.3902175 4.785412,6.0398756 4.5109554,5.7550195 4.4986151,5.757204 4.4862751,5.759384 4.3460039,5.9007991 4.1869021,6.07145 3.4681934,6.8423292 1.3846604,9.014597 1.3639795,9.014597 c -0.012646,0 -0.033398,-0.026753 -0.046115,-0.059452 z M 8.5625002,7.219912 C 8.4276637,7.1721028 8.0370516,6.8522602 8.0714685,6.8178434 c 0.00974,-0.00974 0.1335363,0.02021 0.454485,0.1099765 0.1606808,0.044941 0.1801359,0.061113 0.212139,0.1763483 0.057422,0.2067604 0.065704,0.2013007 -0.1755923,0.1157438 z"
     id="path1"
     sodipodi:nodetypes="ccccccscscccccccccsscccsscsscscscccsccccccccccssccssscsscsscccccsscccssscssscccccssssssscssssccccssscsssscccsssssssssssssccccscssssscssssscsssssssss" />
</svg>
