<?xml version="1.0" encoding="UTF-8" standalone="no"?>
<!-- Created with Inkscape (http://www.inkscape.org/) -->

<svg
   width="48"
   height="48"
   viewBox="0 0 12.7 12.7"
   version="1.1"
   id="svg1"
   inkscape:version="1.4 (e7c3feb100, 2024-10-09)"
   sodipodi:docname="logo1.svg"
   xmlns:inkscape="http://www.inkscape.org/namespaces/inkscape"
   xmlns:sodipodi="http://sodipodi.sourceforge.net/DTD/sodipodi-0.dtd"
   xmlns="http://www.w3.org/2000/svg"
   xmlns:svg="http://www.w3.org/2000/svg"
   xmlns:rdf="http://www.w3.org/1999/02/22-rdf-syntax-ns#"
   xmlns:cc="http://creativecommons.org/ns#"
   xmlns:dc="http://purl.org/dc/elements/1.1/">
  <defs
     id="defs1" />
  <sodipodi:namedview
     id="base"
     pagecolor="#ffffff"
     bordercolor="#000000"
     borderopacity="0.3"
     inkscape:pageopacity="0.0"
     inkscape:pageshadow="2"
     inkscape:zoom="15.839192"
     inkscape:cx="27.02158"
     inkscape:cy="23.959556"
     inkscape:document-units="mm"
     inkscape:showpageshadow="2"
     inkscape:pagecheckerboard="0"
     inkscape:deskcolor="#d1d1d1"
     inkscape:window-width="1920"
     inkscape:window-height="1003"
     inkscape:window-x="1920"
     inkscape:window-y="0"
     inkscape:window-maximized="1"
     inkscape:current-layer="svg1" />
  <metadata
     id="metadata1">
    <rdf:RDF>
      <cc:Work
         rdf:about="">
        <dc:format>image/svg+xml</dc:format>
        <dc:type
           rdf:resource="http://purl.org/dc/dcmitype/StillImage" />
      </cc:Work>
    </rdf:RDF>
  </metadata>
  <g
     id="g2"
     style="display:none">
    <rect
       style="display:inline;fill:#ff0000;fill-opacity:1;stroke-width:0.153631"
       id="rect2-0"
       width="6.3499999"
       height="6.3499999"
       x="6.3449397"
       y="6.3601208" />
    <g
       id="g1"
       style="display:inline">
      <rect
         style="fill:#ff0000;stroke-width:0.278"
         id="rect1"
         width="6.3499999"
         height="3.175"
         x="0"
         y="0" />
      <rect
         style="fill:#008000;fill-opacity:0.215657;stroke-width:0.278"
         id="rect1-5"
         width="6.3499999"
         height="3.175"
         x="0"
         y="3.175" />
      <rect
         style="fill:#008000;fill-opacity:0.215657;stroke-width:0.278"
         id="rect1-5-9"
         width="6.3499999"
         height="3.175"
         x="0"
         y="9.5249996" />
      <rect
         style="fill:#ff0000;stroke-width:0.393151"
         id="rect1-7"
         width="6.3499999"
         height="6.3499999"
         x="6.3499999"
         y="6.3499999" />
    </g>
  </g>
  <rect
     style="display:none;fill:#ff0000;stroke-width:0.153631"
     id="rect2"
     width="6.3499999"
     height="6.3499999"
     x="0"
     y="0" />
  <path
     style="fill:#f9f9f9;stroke-width:1.73078"
     d="M 7.3269876,9.4958885 C 7.3138294,9.4798765 7.2396342,9.4112395 7.1621093,9.3433625 6.5569995,8.8135555 5.4556031,8.2967426 4.3197837,8.0096461 4.0354247,7.93777 3.4705072,7.8341376 3.3630565,7.8341376 c -0.033298,0 -0.060381,-0.0059 -0.060183,-0.013076 4.284e-4,-0.015597 1.2255263,-0.8476672 1.2582246,-0.8545664 0.012441,-0.00264 0.1991332,0.1362999 0.414849,0.3087263 0.215716,0.1724266 0.4083961,0.322197 0.4281778,0.3328231 0.03868,0.020778 0.035562,0.023689 0.4952684,-0.4621957 C 6.1622024,6.8680752 6.4648595,6.5616295 6.47639,6.5616295 c 0.00583,0 0.01958,0.03002 0.030573,0.066707 C 6.56218,6.8126342 6.7744824,7.0416379 6.9857283,7.144764 7.1448166,7.22243 7.2692627,7.2539064 7.5161857,7.2789397 l 0.1966647,0.019938 -0.091587,0.059909 c -0.1732621,0.1133367 -0.2877841,0.251394 -0.3461539,0.417297 -0.055301,0.1571797 -0.040503,0.4148519 0.035869,0.6245785 0.1214255,0.3334513 0.1434495,0.4473953 0.1347737,0.6972633 -0.00743,0.213824 -0.048356,0.427074 -0.081968,0.427074 -0.00707,0 -0.023634,-0.0131 -0.036793,-0.02911 z M 2.0125768,8.2438498 C 2.1076034,8.1283335 3.233577,7.0937737 3.753933,6.6438685 3.8555919,6.5559735 3.9426893,6.4798917 3.947483,6.4747993 3.952283,6.4697093 4.007187,6.4226953 4.0695045,6.3703273 4.1318224,6.3179615 4.2711638,6.197831 4.379152,6.1033714 4.4871407,6.0089126 4.5863359,5.9341429 4.5995873,5.9372173 c 0.013245,0.00308 0.1944627,0.1467871 0.4026926,0.3193591 0.2082297,0.1725734 0.3844717,0.3160264 0.3916485,0.3187859 0.00718,0.00275 0.063145,-0.05212 0.1243765,-0.1219545 C 5.6168532,6.34101 5.8791384,6.0537141 6.8915554,4.9492081 7.0409515,4.7862232 7.2005559,4.6128762 7.2462313,4.5639938 L 7.3292771,4.4751179 7.1810753,4.3764923 C 7.0995642,4.3222482 7.033008,4.272033 7.033171,4.2649064 7.033463,4.2521753 7.1410342,4.2098852 7.7127057,3.997843 7.8708984,3.9391673 8.0621784,3.868208 8.1377744,3.8401567 l 0.137448,-0.051005 -0.0094,0.065797 c -0.0052,0.036189 -0.03836,0.2187597 -0.07372,0.4057134 -0.03536,0.1869538 -0.08228,0.4481959 -0.104266,0.580538 -0.02199,0.1323419 -0.04388,0.2445311 -0.04866,0.2493088 -0.0048,0.00478 -0.05739,-0.032904 -0.116916,-0.083738 -0.05956,-0.050832 -0.131235,-0.111214 -0.1593089,-0.1341808 l -0.051034,-0.041758 -0.09984,0.1113782 C 7.4168356,5.1600214 6.8278864,5.7887391 6.5360739,6.0908741 6.3730885,6.2596245 6.0556339,6.5934249 5.8306193,6.8326523 5.6056047,7.0718795 5.4165928,7.2698224 5.4105928,7.272525 5.404593,7.2752278 5.3259147,7.2159196 5.2357523,7.1407291 5.0294588,6.968692 4.6252683,6.6423342 4.5981713,6.6259235 4.5865952,6.6189128 4.5072826,6.660847 4.4151396,6.7226956 4.3257075,6.7827246 4.1074176,6.9255318 3.9300515,7.0400452 3.7526851,7.1545586 3.4859816,7.327512 3.3373775,7.4243864 2.9001646,7.7094037 2.103739,8.2140268 2.0300084,8.2527483 c -0.041157,0.021614 -0.042125,0.02112 -0.01744,-0.0089 z M 9.2757384,7.8225165 c -0.0064,-0.00639 -0.01162,-0.04118 -0.01162,-0.077307 0,-0.1532977 -0.07051,-0.2341837 -0.341314,-0.3915469 C 8.6921834,7.2196492 8.5610634,7.1643149 8.3423684,7.108712 8.1994754,7.072381 8.1387114,7.067148 7.8597824,7.067148 7.4787122,7.067148 7.3459789,7.044339 7.1404139,6.9435304 6.9524788,6.8513683 6.8146391,6.7134582 6.7185251,6.5214283 6.6804949,6.4454468 6.6493793,6.3711406 6.6493793,6.3563037 c 0,-0.014826 0.1196242,-0.1493333 0.2658317,-0.29888 C 7.0614175,5.9078762 7.3062956,5.6463754 7.4593827,5.4763118 7.6124692,5.306248 7.7418992,5.1671281 7.7470037,5.1671566 c 0.00511,2.86e-5 0.1024607,0.07455 0.2163497,0.1656007 0.181596,0.1451829 0.237437,0.1826776 0.237437,0.1594269 0,-0.024441 0.107317,-0.6299558 0.112583,-0.6352211 0.0037,-0.00368 0.02888,0.00845 0.056,0.026954 0.02712,0.018508 0.09331,0.061688 0.147085,0.095958 0.05679,0.03619 0.14119,0.1158891 0.201345,0.190138 0.128274,0.1583239 0.212083,0.2078506 0.369124,0.2181342 0.19605,0.012836 0.158526,-0.010029 0.639123,0.3894328 0.15157,0.1259817 0.204804,0.163137 0.172844,0.1206413 -0.129953,-0.1727927 -0.30799,-0.3815867 -0.414949,-0.486637 -0.128378,-0.1260861 -0.132669,-0.1329798 -0.132669,-0.2131352 0,-0.066758 -0.0076,-0.08776 -0.03922,-0.1082213 -0.04883,-0.031606 -0.357632,-0.1130578 -0.701622,-0.1850642 -0.143811,-0.030103 -0.268496,-0.061494 -0.277079,-0.069756 -0.02503,-0.024098 0.166142,-0.958239 0.196105,-0.958239 0.06809,0 1.324296,0.7761638 1.399103,0.8644538 0.01878,0.02217 0.03188,0.083807 0.03924,0.1847121 0.0061,0.083291 0.01926,0.17303 0.02929,0.1994176 0.01004,0.026387 0.07082,0.1060955 0.1350766,0.1771286 0.56444,0.62393 0.787952,0.889876 0.787952,0.9375484 0,0.013203 -0.02411,0.036438 -0.05357,0.051675 -0.06237,0.032252 -0.115384,0.02448 -0.268361,-0.039341 -0.08607,-0.035909 -0.120829,-0.0415 -0.201327,-0.032395 -0.09351,0.010579 -0.101166,0.00824 -0.196661,-0.060148 l -0.09937,-0.071156 1.7e-4,0.048896 c 4.41e-4,0.1265135 0.103327,0.2612969 0.281364,0.3685958 0.07925,0.047759 0.08994,0.074847 0.06545,0.165796 -0.02752,0.1022052 -0.07398,0.1864205 -0.13461,0.2440095 -0.07655,0.072705 -0.4485886,0.1843081 -0.6585576,0.1975524 -0.196343,0.012399 -0.245131,-0.0026 -0.421131,-0.1292584 -0.204088,-0.1468854 -0.268598,-0.1711248 -0.396472,-0.1489726 -0.05753,0.00997 -0.132043,0.030182 -0.165601,0.044928 l -0.06101,0.02681 0.06299,0.00142 c 0.192984,0.00437 0.342754,0.063838 0.499304,0.1982968 0.12856,0.1104203 0.220722,0.1514749 0.367688,0.1637959 0.101655,0.00852 0.15779,-2.131e-4 0.39888,-0.06207 0.1543136,-0.039596 0.2940096,-0.07199 0.3104316,-0.07199 0.04639,0 0.02439,0.1507336 -0.04155,0.2846749 C 10.102836,7.6355359 9.8890684,7.7799038 9.6245714,7.815687 9.4707164,7.836501 9.2932104,7.839975 9.2757484,7.822507 Z M 10.39717,7.056765 c 0,-0.015292 0.01509,-0.049009 0.03354,-0.074914 0.01845,-0.025905 0.06432,-0.1038189 0.101928,-0.1731428 0.06215,-0.1145208 0.259917,-0.3630197 0.276068,-0.3468687 0.0037,0.00368 -0.01615,0.049207 -0.04405,0.1011769 -0.02792,0.051968 -0.06008,0.1297422 -0.07147,0.1728313 -0.03178,0.12007 -0.07634,0.1951659 -0.163408,0.2754291 -0.08262,0.076153 -0.132593,0.093299 -0.132593,0.045486 z M 2.9713142,6.9178386 c 0,-0.026062 0.2979735,-0.6024086 0.3914406,-0.7571331 0.430968,-0.7134196 0.8938254,-1.2287049 1.4671595,-1.6333446 0.0947,-0.066835 0.2290502,-0.1550775 0.2985588,-0.1960951 0.069507,-0.041016 0.1263795,-0.076962 0.1263795,-0.079873 0,-0.00291 -0.019466,-0.044053 -0.043259,-0.091422 C 5.1505005,4.0383382 5.1107635,3.8569472 5.1095448,3.6941367 5.1084248,3.5442143 5.1589018,3.233094 5.1914198,3.1895488 c 0.017548,-0.023494 0.040139,-0.02067 0.1941705,0.024277 0.375759,0.1096502 0.6545559,0.2249218 0.9338076,0.3860876 l 0.150932,0.087108 0.1970988,-0.020638 c 0.2809421,-0.029416 1.1672997,-0.00272 1.1672997,0.035157 0,0.00695 -0.2215991,0.093681 -0.4924424,0.1927692 -0.917316,0.3355981 -0.8433875,0.3048096 -0.7973498,0.3320676 0.097972,0.058007 0.3920656,0.2762849 0.3920656,0.290993 0,0.017136 -0.138025,0.1702277 -0.845149,0.9374353 C 5.7037892,5.8758413 5.4846784,6.116242 5.4285013,6.1826097 L 5.3842559,6.2348806 5.1060171,6.0116532 C 4.9529855,5.8888789 4.7783055,5.7466818 4.7178387,5.6956605 4.6573722,5.644639 4.5985405,5.6029096 4.5871017,5.6029281 4.5756615,5.6029467 4.4172648,5.7256102 4.2351043,5.8755132 3.6527917,6.3547098 3.315726,6.6346823 3.141272,6.7840692 3.0477948,6.8641137 2.971314,6.92431 2.9713142,6.9178386 Z M 5.6540784,4.4172123 C 5.6146544,4.233386 5.6743344,4.0124387 5.7809713,3.947424 5.8637883,3.896933 6.0506435,3.901311 6.2375614,3.958116 6.3016514,3.977596 6.2448714,3.926457 6.0851447,3.8208625 5.9042654,3.7012786 5.4573495,3.4762339 5.400744,3.4762339 c -0.051301,0 -0.058774,0.028588 -0.058475,0.2236783 2.889e-4,0.1890118 0.031248,0.3446403 0.095631,0.4807336 0.047381,0.1001585 0.2161757,0.3489995 0.2284238,0.3367513 0.00419,-0.00419 -0.00132,-0.049274 -0.01223,-0.1001923 z"
     id="path1"
     sodipodi:nodetypes="ssscsssscsscssscscccscsssscssscsssscsssssccssssssssssccscsssssssssssssssssssscsssscccssssscsssccccscssssscssscscccccccscssscscsscssssssscsssssscscsssssccsc" />
</svg>
