<?xml version="1.0" encoding="UTF-8" standalone="no"?>
<!-- Created with Inkscape (http://www.inkscape.org/) -->

<svg
   width="48"
   height="48"
   viewBox="0 0 12.7 12.7"
   version="1.1"
   id="svg1"
   inkscape:version="1.4 (e7c3feb100, 2024-10-09)"
   sodipodi:docname="logo1.svg"
   xmlns:inkscape="http://www.inkscape.org/namespaces/inkscape"
   xmlns:sodipodi="http://sodipodi.sourceforge.net/DTD/sodipodi-0.dtd"
   xmlns="http://www.w3.org/2000/svg"
   xmlns:svg="http://www.w3.org/2000/svg"
   xmlns:rdf="http://www.w3.org/1999/02/22-rdf-syntax-ns#"
   xmlns:cc="http://creativecommons.org/ns#"
   xmlns:dc="http://purl.org/dc/elements/1.1/">
  <defs
     id="defs1" />
  <sodipodi:namedview
     id="base"
     pagecolor="#ffffff"
     bordercolor="#000000"
     borderopacity="0.3"
     inkscape:pageopacity="0.0"
     inkscape:pageshadow="2"
     inkscape:zoom="11.2"
     inkscape:cx="19.553571"
     inkscape:cy="24.241071"
     inkscape:document-units="mm"
     inkscape:showpageshadow="2"
     inkscape:pagecheckerboard="0"
     inkscape:deskcolor="#d1d1d1"
     inkscape:window-width="1920"
     inkscape:window-height="1003"
     inkscape:window-x="1920"
     inkscape:window-y="0"
     inkscape:window-maximized="1"
     inkscape:current-layer="svg1" />
  <metadata
     id="metadata1">
    <rdf:RDF>
      <cc:Work
         rdf:about="">
        <dc:format>image/svg+xml</dc:format>
        <dc:type
           rdf:resource="http://purl.org/dc/dcmitype/StillImage" />
      </cc:Work>
    </rdf:RDF>
  </metadata>
  <rect
     style="display:none;fill:#ff0000;stroke-width:0.153631"
     id="rect2"
     width="6.3499999"
     height="6.3499999"
     x="0"
     y="0" />
  <rect
     style="display:none;fill:#ff0000;fill-opacity:1;stroke-width:0.153631"
     id="rect2-0"
     width="6.3499999"
     height="6.3499999"
     x="6.3449397"
     y="6.3601208" />
  <path
     style="fill:#f2f2f2;stroke-width:1.80632"
     d="M 7.4076229,10.440741 C 7.2259987,10.30594 3.8811354,8.2129473 3.8473302,8.2129473 c -0.011741,0 -0.1049471,0.041017 -0.2069823,0.091146 C 3.3472475,8.4480886 1.381578,9.3780999 1.0403592,9.5342187 0.87061938,9.6118887 0.72770538,9.6713817 0.72276868,9.6664457 0.70403668,9.6477157 3.9011242,7.5333996 3.9481643,7.5333996 c 0.034772,0 3.4494493,2.8356664 3.5250561,2.9273304 0.043174,0.05233 0.023955,0.04648 -0.065601,-0.01999 z M 7.0280263,9.5669897 C 6.947933,9.4995837 6.8698115,9.4275362 6.8544038,9.4068777 6.8132368,9.3516535 6.8184372,8.9871665 6.8625557,8.8386842 6.9478657,8.5513167 7.104512,8.3333467 7.3533107,8.1558069 c 0.135853,-0.096944 0.4499199,-0.256497 0.504886,-0.256497 0.014629,0 -0.039287,0.069818 -0.1197769,0.1551596 C 7.4845452,8.3235902 7.31924,8.60425 7.2360433,8.9074269 c -0.029661,0.1080943 -0.039957,0.2278776 -0.039957,0.4648616 0,0.1755852 -0.00506,0.3187952 -0.011197,0.3182472 -0.00617,-5.47e-4 -0.07673,-0.05615 -0.1568249,-0.123546 z M 0.79307788,8.9344558 C 1.2371341,8.5164147 2.0529268,7.7687242 2.4130957,7.4496781 2.9879583,6.9404521 3.9358109,6.1283544 3.9711118,6.1148082 c 0.01734,-0.00666 0.1444513,0.083557 0.2947874,0.2093256 0.1453364,0.121576 0.374074,0.3107523 0.5083159,0.4203909 l 0.244077,0.1993434 0.069561,-0.077184 C 5.1261112,6.8242339 5.631228,6.2721903 6.2103336,5.6399208 7.5446462,4.1831165 7.4822867,4.2534553 7.4647254,4.2250423 7.4565969,4.2117659 7.3696234,4.1493432 7.2716102,4.086317 7.1735996,4.023291 7.1013826,3.9647248 7.1111192,3.9561701 7.1404706,3.9304027 8.650973,3.3739912 8.6915806,3.3739912 c 0.020703,0 0.033041,0.012609 0.027421,0.028003 -0.011737,0.032243 -0.3020257,1.5792937 -0.3020257,1.6096709 0,0.037878 -0.033685,0.01882 -0.1456067,-0.08236 C 8.2097574,4.8736114 8.1229084,4.7984978 8.0783495,4.7623877 L 7.9973383,4.6967335 7.1934441,5.5635068 C 6.7513062,6.040233 6.122402,6.7171724 5.7958848,7.0678177 5.4693676,7.4184632 5.1718127,7.7400369 5.1346532,7.7824255 L 5.0670969,7.8594934 4.7202117,7.584848 C 4.5294247,7.4337971 4.2817587,7.236222 4.1698447,7.1457971 L 3.9663629,6.9813879 3.6881882,7.166007 C 3.535193,7.2675423 3.3243253,7.405426 3.2195932,7.4724049 3.1148627,7.5393885 2.8628328,7.7015158 2.6595299,7.8327024 1.44272,8.6178786 0.65957838,9.1096718 0.62860178,9.1080754 c -0.010471,-5.353e-4 0.0636185,-0.078673 0.1644833,-0.1736196 z m 5.44951842,0.00269 C 6.1755659,8.8795829 5.9392613,8.6817314 5.7174761,8.497464 5.4956893,8.3131954 5.3063419,8.1553138 5.2967034,8.146615 5.2790012,8.1306275 5.5503213,7.8218133 6.0608301,7.2769006 L 6.3395665,6.979378 C 6.8262953,7.4067128 7.2780409,7.6381062 7.8509629,7.8896286 6.7785124,8.5956083 7.2106231,8.745412 6.8549212,9.418406 6.8545769,9.4190575 6.3096225,8.9947093 6.24259,8.9371426 Z M 10.027113,8.5340197 c -0.0254,-0.00679 -0.03968,-0.043195 -0.04707,-0.1200644 C 9.9587121,8.1919492 9.8093211,8.0586977 9.3018881,7.809117 8.9156049,7.6191233 8.780827,7.5868895 8.2713695,7.5626482 7.7771406,7.5391319 7.7076753,7.5255139 7.4601901,7.4036141 7.2225221,7.2865493 7.0276994,7.0865162 6.8969712,6.8253283 6.7437231,6.5191533 6.7430728,6.5237749 6.9750764,6.2719372 7.0842864,6.1533957 7.36301,5.848548 7.5944662,5.5944995 7.8259224,5.3404508 8.0225057,5.1301047 8.0313172,5.1270634 c 0.00885,-0.00303 0.135781,0.090209 0.2821393,0.2072239 0.146366,0.1170157 0.2732256,0.2127533 0.2819119,0.2127533 0.00868,0 0.03891,-0.1285358 0.067155,-0.2856329 0.028254,-0.157099 0.115623,-0.6158806 0.1941433,-1.0195168 0.078523,-0.4036362 0.142771,-0.7438754 0.142771,-0.7560869 0,-0.04174 0.061775,-0.022188 0.2381014,0.075349 0.259757,0.1436944 1.0100829,0.6065703 1.3220209,0.8155557 0.294115,0.1970443 0.321694,0.2332289 0.321694,0.4220856 0,0.2259258 0.03726,0.3115174 0.221192,0.5080293 0.288669,0.3084206 0.703676,0.7791445 0.850041,0.9641674 0.15863,0.2005152 0.173154,0.2643814 0.06985,0.3071655 -0.07297,0.030229 -0.08144,0.02858 -0.343168,-0.066978 -0.101407,-0.037024 -0.158325,-0.044798 -0.246894,-0.033731 -0.106373,0.013295 -0.124168,0.00829 -0.234508,-0.065967 -0.174798,-0.1176346 -0.195211,-0.1047574 -0.114794,0.072435 0.06336,0.1396175 0.118314,0.2027237 0.286703,0.3292102 0.08227,0.061793 0.152633,0.1282866 0.156391,0.1477641 0.0116,0.05997 -0.08561,0.2881576 -0.157583,0.3701377 -0.03754,0.042751 -0.09452,0.09131 -0.12666,0.1079303 -0.114267,0.059089 -0.55224,0.1735189 -0.709719,0.1854293 -0.27045,0.02045 -0.3426,-9.522e-4 -0.6075049,-0.1802535 l -0.237707,-0.1608929 -0.19251,0.00176 c -0.12487,0.00112 -0.220059,0.014254 -0.27092,0.037374 l -0.078411,0.035641 0.078411,0.00223 c 0.188045,0.00527 0.378588,0.065414 0.515295,0.1625373 0.07472,0.053093 0.182178,0.1293817 0.238764,0.1695343 0.2311639,0.1640224 0.4200309,0.1721942 0.9481509,0.041029 0.166128,-0.041263 0.315964,-0.069677 0.332971,-0.063154 0.04688,0.01799 0.02026,0.1831114 -0.05406,0.3352398 -0.130868,0.2678744 -0.413387,0.4700842 -0.726581,0.5200284 -0.143928,0.022956 -0.380228,0.027477 -0.450908,0.00867 z M 10.643819,5.8674255 C 10.571113,5.7721747 10.418374,5.5968823 10.304403,5.4778865 10.135241,5.3012719 10.097179,5.2489279 10.097179,5.1929196 c 0,-0.154312 -0.02095,-0.1718693 -0.2951309,-0.2473035 -0.316452,-0.087064 -0.9836584,-0.2330949 -0.9982664,-0.2184882 -0.00591,0.00599 0.068373,0.061257 0.1652056,0.1228405 0.1195419,0.076011 0.2160448,0.1608888 0.3005338,0.2643116 0.17066,0.2089057 0.278156,0.2714441 0.512518,0.2981738 0.10428,0.011886 0.212501,0.03813 0.2452789,0.059461 0.08896,0.057895 0.69283,0.5429007 0.709462,0.5698097 0.008,0.012952 0.0201,0.018009 0.0269,0.011221 0.0069,-0.00679 -0.04714,-0.090269 -0.119851,-0.1855194 z m 0.797513,1.6941112 c 0,-0.05971 0.248813,-0.4664563 0.377809,-0.6176152 0.07842,-0.091892 0.146709,-0.1629551 0.151749,-0.1579172 0.005,0.00504 -0.01608,0.053451 -0.04708,0.1075801 -0.03094,0.054132 -0.08295,0.1781788 -0.11559,0.2756611 -0.04797,0.1433289 -0.08148,0.2001202 -0.175159,0.2968335 -0.107356,0.110835 -0.191714,0.1528382 -0.191714,0.095457 z M 1.8978364,7.3490798 c 0,-0.028274 0.3654036,-0.7303327 0.4810386,-0.9242236 C 2.7395372,5.8201071 3.1077297,5.3467599 3.5590365,4.9076395 3.875843,4.5993874 4.0579793,4.4541484 4.4888675,4.1661735 4.8254912,3.9411986 4.8284426,3.9385014 4.7993807,3.8824836 4.6595356,3.6129162 4.6123618,3.2960754 4.6619922,2.9595204 c 0.019238,-0.1304775 0.046874,-0.2769062 0.061397,-0.3253975 0.030021,-0.1001907 0.00542,-0.099693 0.330782,-0.0067 0.3264071,0.093287 0.6070584,0.2075085 0.9867121,0.40158 l 0.3682034,0.1882176 0.2590675,-0.025354 c 0.1608705,-0.015751 0.4416216,-0.020144 0.7407242,-0.011619 0.5376647,0.015354 0.7221949,0.032176 0.7112933,0.064877 C 8.1162217,3.2572805 7.99727,3.3094845 7.8560536,3.3611446 6.9377164,3.6970968 6.467969,3.8751681 6.467969,3.8873375 c 0,0.00772 0.1213666,0.098316 0.269705,0.2013552 0.1483347,0.103043 0.2667928,0.1950164 0.2632305,0.2043897 -0.0065,0.016943 -0.1792948,0.206353 -1.2256063,1.3429633 C 5.474418,5.9628992 5.1741791,6.2892102 5.1081021,6.3611882 L 4.9879641,6.4920577 4.7142508,6.2703801 C 4.5637123,6.1484573 4.3376553,5.9650825 4.2119084,5.8628805 4.0861526,5.760679 3.9732107,5.6805686 3.9609043,5.684859 3.9393368,5.6923732 3.1840611,6.310308 2.328999,7.0200111 2.1026114,7.207913 1.9129895,7.3616507 1.9076157,7.3616507 c -0.00542,0 -0.00976,-0.00562 -0.00976,-0.012567 z M 5.3444841,4.179876 c -0.031195,-0.1345345 -0.00867,-0.3877291 0.04337,-0.4887006 0.06584,-0.1276235 0.1649169,-0.1828349 0.3273319,-0.1824192 0.075179,1.924e-4 0.1946705,0.013999 0.2655179,0.030662 0.070844,0.016673 0.1288086,0.022073 0.1288086,0.011994 0,-0.060737 -0.8977744,-0.5604976 -1.066544,-0.5937077 -0.088021,-0.017321 -0.097668,0.012627 -0.098084,0.3047144 -3.341e-4,0.2331288 0.050668,0.4624421 0.1436385,0.6459393 0.054207,0.1069722 0.2587948,0.3920968 0.271923,0.3789682 0.00397,-0.00399 -0.00326,-0.052347 -0.015896,-0.1074595 z"
     id="path1"
     sodipodi:nodetypes="csccssccccccsscssccccsccscsscscscsccccscccsccccccccscsccscccssssccsccsccscsscccsccccccscscccccccccccccccssccscsccccccsccsccccssccccscccccscccsccccssccccscssccccc" />
</svg>
